<svg width="41" height="41" viewBox="0 0 41 41" fill="none" xmlns="http://www.w3.org/2000/svg">
<circle cx="20.5" cy="20.5" r="20.5" fill="white"/>
<g clip-path="url(#clip0_384_1370)">
<path d="M21.0043 15.9568C18.7329 15.9568 16.9007 17.7604 16.9007 19.9963C16.9007 22.2322 18.7329 24.0357 21.0043 24.0357C23.2757 24.0357 25.1079 22.2322 25.1079 19.9963C25.1079 17.7604 23.2757 15.9568 21.0043 15.9568ZM21.0043 22.6225C19.5364 22.6225 18.3364 21.4447 18.3364 19.9963C18.3364 18.5479 19.5329 17.3701 21.0043 17.3701C22.4757 17.3701 23.6722 18.5479 23.6722 19.9963C23.6722 21.4447 22.4722 22.6225 21.0043 22.6225V22.6225ZM26.2329 15.7916C26.2329 16.3154 25.8043 16.7338 25.2757 16.7338C24.7436 16.7338 24.3186 16.3119 24.3186 15.7916C24.3186 15.2713 24.7472 14.8494 25.2757 14.8494C25.8043 14.8494 26.2329 15.2713 26.2329 15.7916ZM28.9507 16.7479C28.89 15.4857 28.5972 14.3678 27.6579 13.4467C26.7222 12.5256 25.5864 12.2373 24.3043 12.174C22.9829 12.1002 19.0222 12.1002 17.7007 12.174C16.4222 12.2338 15.2864 12.5221 14.3472 13.4432C13.4079 14.3643 13.1186 15.4822 13.0543 16.7443C12.9793 18.0451 12.9793 21.9439 13.0543 23.2447C13.115 24.5068 13.4079 25.6248 14.3472 26.5459C15.2864 27.467 16.4186 27.7553 17.7007 27.8186C19.0222 27.8924 22.9829 27.8924 24.3043 27.8186C25.5864 27.7588 26.7222 27.4705 27.6579 26.5459C28.5936 25.6248 28.8864 24.5068 28.9507 23.2447C29.0257 21.9439 29.0257 18.0486 28.9507 16.7479V16.7479ZM27.2436 24.6404C26.965 25.3295 26.4257 25.8604 25.7222 26.1381C24.6686 26.5494 22.1686 26.4545 21.0043 26.4545C19.84 26.4545 17.3364 26.5459 16.2864 26.1381C15.5864 25.8639 15.0472 25.333 14.765 24.6404C14.3472 23.6033 14.4436 21.1424 14.4436 19.9963C14.4436 18.8502 14.3507 16.3857 14.765 15.3521C15.0436 14.6631 15.5829 14.1322 16.2864 13.8545C17.34 13.4432 19.84 13.5381 21.0043 13.5381C22.1686 13.5381 24.6722 13.4467 25.7222 13.8545C26.4222 14.1287 26.9614 14.6596 27.2436 15.3521C27.6614 16.3893 27.565 18.8502 27.565 19.9963C27.565 21.1424 27.6614 23.6068 27.2436 24.6404Z" fill="black"/>
</g>
<defs>
<clipPath id="clip0_384_1370">
<rect width="16" height="18" fill="white" transform="translate(13 11)"/>
</clipPath>
</defs>
</svg>
