<svg width="11" height="15" viewBox="0 0 11 15" fill="none" xmlns="http://www.w3.org/2000/svg">
<path d="M5.5 14C5.63339 14 5.73597 13.9508 5.77952 13.9281C5.83419 13.8997 5.88256 13.866 5.92139 13.8363C5.99985 13.7764 6.08301 13.6993 6.16565 13.6161C6.33323 13.4473 6.53838 13.2128 6.76414 12.9343C7.21743 12.3751 7.77758 11.6085 8.32338 10.7638C8.86868 9.91977 9.4065 8.98718 9.80985 8.09684C10.2067 7.22088 10.5 6.3292 10.5 5.58547C10.5 2.78575 8.27025 0.5 5.5 0.5C2.72975 0.5 0.5 2.78575 0.5 5.58547C0.5 6.3292 0.793324 7.22088 1.19015 8.09684C1.5935 8.98718 2.13132 9.91977 2.67662 10.7638C3.22242 11.6085 3.78257 12.3751 4.23586 12.9343C4.46162 13.2128 4.66677 13.4473 4.83435 13.6161C4.91699 13.6993 5.00015 13.7764 5.07861 13.8363C5.11744 13.866 5.16581 13.8997 5.22048 13.9281C5.26403 13.9508 5.36661 14 5.5 14Z" stroke="white"/>
<path d="M5.49858 8.39653C6.92869 8.39653 8.04403 7.18283 8.04403 5.74135C8.04403 4.29988 6.92869 3.08618 5.49858 3.08618C4.06847 3.08618 2.95312 4.29988 2.95312 5.74135C2.95312 7.18283 4.06847 8.39653 5.49858 8.39653Z" stroke="white"/>
</svg>
