<svg width="112" height="53" viewBox="0 0 112 53" fill="none" xmlns="http://www.w3.org/2000/svg">
<path d="M25.9824 52.7987V0.089386H36.0451L49.9993 52.7987H40.4371L35.5447 26.4441V52.7987H25.9824Z" fill="#8CBDBD"/>
<path d="M1.92383 52.7987V0.089386H11.9865L25.9407 52.7987H16.3785L11.4861 26.4441V52.7987H1.92383Z" fill="#8CBDBD"/>
<path d="M0 52.7987V0.089386H10.0627L24.0169 52.7987H14.4546L9.56231 26.4441V52.7987H0Z" fill="white"/>
<path d="M24.0996 52.7987V0.089386H34.1623L48.1165 52.7987H38.5542L33.6619 26.4441V52.7987H24.0996Z" fill="white"/>
<g filter="url(#filter0_d_276_791)">
<path d="M58.46 35.2344C54.7783 35.2344 52.9375 32.5977 52.9375 27.3242V16.2061C52.9375 11.3916 55.0469 8.98438 59.2656 8.98438C61.0039 8.98438 62.3369 9.33594 63.2646 10.0391C64.1924 10.7324 64.832 11.748 65.1836 13.0859C65.5352 14.4238 65.7109 16.0547 65.7109 17.9785H60.6719V15.6934C60.6719 15.1367 60.5938 14.6729 60.4375 14.3018C60.291 13.9209 59.9785 13.7305 59.5 13.7305C58.9043 13.7305 58.5088 13.9307 58.3135 14.3311C58.1279 14.7314 58.0352 15.1709 58.0352 15.6494V28.1445C58.0352 28.8379 58.123 29.4043 58.2988 29.8438C58.4844 30.2734 58.8408 30.4883 59.3682 30.4883C59.915 30.4883 60.2764 30.2734 60.4521 29.8438C60.6377 29.4043 60.7305 28.8281 60.7305 28.1152V24.4385H59.3535V19.9854H65.6523V35H63.5869L62.708 32.832C61.8096 34.4336 60.3936 35.2344 58.46 35.2344ZM73.8555 35.2344C71.7949 35.2344 70.2178 34.6143 69.124 33.374C68.04 32.124 67.498 30.3223 67.498 27.9688V15.7227C67.498 13.5156 68.0352 11.8408 69.1094 10.6982C70.1934 9.55566 71.7754 8.98438 73.8555 8.98438C75.9355 8.98438 77.5127 9.55566 78.5869 10.6982C79.6709 11.8408 80.2129 13.5156 80.2129 15.7227V27.9688C80.2129 30.3223 79.666 32.124 78.5723 33.374C77.4883 34.6143 75.916 35.2344 73.8555 35.2344ZM73.8994 30.4883C74.6807 30.4883 75.0713 29.7314 75.0713 28.2178V15.6348C75.0713 14.3652 74.6904 13.7305 73.9287 13.7305C73.0693 13.7305 72.6396 14.3799 72.6396 15.6787V28.2471C72.6396 29.0479 72.7373 29.624 72.9326 29.9756C73.1279 30.3174 73.4502 30.4883 73.8994 30.4883ZM88.4453 35.2344C86.3848 35.2344 84.8076 34.6143 83.7139 33.374C82.6299 32.124 82.0879 30.3223 82.0879 27.9688V15.7227C82.0879 13.5156 82.625 11.8408 83.6992 10.6982C84.7832 9.55566 86.3652 8.98438 88.4453 8.98438C90.5254 8.98438 92.1025 9.55566 93.1768 10.6982C94.2607 11.8408 94.8027 13.5156 94.8027 15.7227V27.9688C94.8027 30.3223 94.2559 32.124 93.1621 33.374C92.0781 34.6143 90.5059 35.2344 88.4453 35.2344ZM88.4893 30.4883C89.2705 30.4883 89.6611 29.7314 89.6611 28.2178V15.6348C89.6611 14.3652 89.2803 13.7305 88.5186 13.7305C87.6592 13.7305 87.2295 14.3799 87.2295 15.6787V28.2471C87.2295 29.0479 87.3271 29.624 87.5225 29.9756C87.7178 30.3174 88.04 30.4883 88.4893 30.4883ZM96.8828 35V9.21875H102.186L104.559 21.5674V9.21875H109.539V35H104.5L101.922 22.1094V35H96.8828Z" fill="white"/>
</g>
<defs>
<filter id="filter0_d_276_791" x="52.9375" y="8.98438" width="58.6016" height="28.25" filterUnits="userSpaceOnUse" color-interpolation-filters="sRGB">
<feFlood flood-opacity="0" result="BackgroundImageFix"/>
<feColorMatrix in="SourceAlpha" type="matrix" values="0 0 0 0 0 0 0 0 0 0 0 0 0 0 0 0 0 0 127 0" result="hardAlpha"/>
<feOffset dx="2" dy="2"/>
<feComposite in2="hardAlpha" operator="out"/>
<feColorMatrix type="matrix" values="0 0 0 0 0.54902 0 0 0 0 0.741176 0 0 0 0 0.741176 0 0 0 1 0"/>
<feBlend mode="normal" in2="BackgroundImageFix" result="effect1_dropShadow_276_791"/>
<feBlend mode="normal" in="SourceGraphic" in2="effect1_dropShadow_276_791" result="shape"/>
</filter>
</defs>
</svg>
