<svg width="11" height="11" viewBox="0 0 11 11" fill="none" xmlns="http://www.w3.org/2000/svg">
<path d="M4.54894 0.92705C4.8483 0.00573918 6.1517 0.00573998 6.45106 0.927051L7.046 2.75809C7.17987 3.17011 7.56383 3.44907 7.99705 3.44907H9.92232C10.891 3.44907 11.2938 4.68868 10.5101 5.25809L8.95253 6.38973C8.60204 6.64437 8.45539 7.09574 8.58926 7.50776L9.1842 9.3388C9.48355 10.2601 8.42907 11.0262 7.64536 10.4568L6.08779 9.32519C5.7373 9.07054 5.2627 9.07054 4.91221 9.32519L3.35464 10.4568C2.57093 11.0262 1.51645 10.2601 1.8158 9.3388L2.41074 7.50776C2.54461 7.09574 2.39796 6.64437 2.04747 6.38973L0.489897 5.25809C-0.293817 4.68868 0.108959 3.44907 1.07768 3.44907H3.00295C3.43617 3.44907 3.82013 3.17011 3.954 2.75809L4.54894 0.92705Z" fill="#FFCB67"/>
</svg>
