<svg width="41" height="41" viewBox="0 0 41 41" fill="none" xmlns="http://www.w3.org/2000/svg">
<circle cx="20.5" cy="20.5" r="20.5" fill="white"/>
<path d="M27.2525 17.0377C27.2633 17.1887 27.2633 17.3397 27.2633 17.4907C27.2633 22.0966 23.7576 27.4038 17.3503 27.4038C15.3763 27.4038 13.5425 26.832 12 25.8397C12.2805 25.872 12.5501 25.8828 12.8414 25.8828C14.4701 25.8828 15.9695 25.3327 17.1669 24.3943C15.6351 24.3619 14.3515 23.3587 13.9092 21.978C14.125 22.0104 14.3407 22.0319 14.5673 22.0319C14.8801 22.0319 15.1929 21.9888 15.4841 21.9133C13.8877 21.5897 12.6903 20.1874 12.6903 18.4939V18.4507C13.1541 18.7096 13.6935 18.8714 14.2652 18.893C13.3267 18.2673 12.7119 17.1995 12.7119 15.9913C12.7119 15.3441 12.8845 14.7509 13.1865 14.2331C14.9016 16.3473 17.4797 17.728 20.3705 17.879C20.3166 17.6201 20.2842 17.3505 20.2842 17.0808C20.2842 15.1607 21.8375 13.5967 23.7683 13.5967C24.7715 13.5967 25.6776 14.0174 26.314 14.6969C27.1014 14.5459 27.8565 14.2547 28.5253 13.8556C28.2664 14.6646 27.7163 15.3442 26.9936 15.7756C27.6948 15.7001 28.3743 15.5059 28.9999 15.2363C28.5254 15.9266 27.9321 16.5414 27.2525 17.0377V17.0377Z" fill="black"/>
</svg>
